<svg width="400" height="100" viewBox="0 0 400 100" fill="none" xmlns="http://www.w3.org/2000/svg">
<path d="M47.7298 5H387.929L346.464 46.4645L342.929 50L346.464 53.5355L387.929 95H46.5139L6.86499 68.5674L47.7298 5Z" fill="#9CA3AF" stroke="#EFF6FF" stroke-width="10"/>
<mask id="path-2-inside-1_4_140" fill="white">
<path fill-rule="evenodd" clip-rule="evenodd" d="M45 100H400L380 80H15L45 100Z"/>
</mask>
<path fill-rule="evenodd" clip-rule="evenodd" d="M45 100H400L380 80H15L45 100Z" fill="#9CA3AF"/>
<path d="M400 100V110H424.142L407.071 92.9289L400 100ZM45 100L39.453 108.321L41.9722 110H45V100ZM380 80L387.071 72.9289L384.142 70H380V80ZM15 80V70H-18.0278L9.453 88.3205L15 80ZM400 90H45V110H400V90ZM372.929 87.0711L392.929 107.071L407.071 92.9289L387.071 72.9289L372.929 87.0711ZM15 90H380V70H15V90ZM50.547 91.6795L20.547 71.6795L9.453 88.3205L39.453 108.321L50.547 91.6795Z" fill="#EFF6FF" mask="url(#path-2-inside-1_4_140)"/>
</svg>
